<?xml version="1.0" ?><svg height="64px" version="1.1" viewBox="0 0 64 64" width="64px" xmlns="http://www.w3.org/2000/svg" xmlns:xlink="http://www.w3.org/1999/xlink"><title/><desc/><g fill="none" fill-rule="evenodd" id="Calendar" stroke="none" stroke-width="1"><path d="M54,10.5 L10,10.5 C6.41014913,10.5 3.5,13.4101491 3.5,17 L3.5,54 C3.5,57.5898509 6.41014913,60.5 10,60.5 L54,60.5 C57.5898509,60.5 60.5,57.5898509 60.5,54 L60.5,17 C60.5,13.4101491 57.5898509,10.5 54,10.5 Z M10,15.5 L54,15.5 C54.8284271,15.5 55.5,16.1715729 55.5,17 L55.5,54 C55.5,54.8284271 54.8284271,55.5 54,55.5 L10,55.5 C9.17157288,55.5 8.5,54.8284271 8.5,54 L8.5,17 C8.5,16.1715729 9.17157288,15.5 10,15.5 Z" fill="#000000" fill-rule="nonzero" id="Rectangle"/><path d="M17,6 C18.1045695,6 19,6.8954305 19,8 L19,12 C19,13.1045695 18.1045695,14 17,14 C15.8954305,14 15,13.1045695 15,12 L15,8 C15,6.8954305 15.8954305,6 17,6 Z" fill="#000000" id="Rectangle"/><path d="M27,6 C28.1045695,6 29,6.8954305 29,8 L29,12 C29,13.1045695 28.1045695,14 27,14 C25.8954305,14 25,13.1045695 25,12 L25,8 C25,6.8954305 25.8954305,6 27,6 Z" fill="#000000" id="Rectangle"/><path d="M37,6 C38.1045695,6 39,6.8954305 39,8 L39,12 C39,13.1045695 38.1045695,14 37,14 C35.8954305,14 35,13.1045695 35,12 L35,8 C35,6.8954305 35.8954305,6 37,6 Z" fill="#000000" id="Rectangle"/><path d="M47,6 C48.1045695,6 49,6.8954305 49,8 L49,12 C49,13.1045695 48.1045695,14 47,14 C45.8954305,14 45,13.1045695 45,12 L45,8 C45,6.8954305 45.8954305,6 47,6 Z" fill="#000000" id="Rectangle"/><rect fill="#000000" height="5" id="Rectangle" width="48" x="8" y="23"/></g></svg>