<?xml version="1.0" ?><!DOCTYPE svg  PUBLIC '-//W3C//DTD SVG 1.1//EN'  'http://www.w3.org/Graphics/SVG/1.1/DTD/svg11.dtd'><svg enable-background="new 0 0 91 91" height="91px" id="Layer_1" version="1.1" viewBox="0 0 91 91" width="91px" xml:space="preserve" xmlns="http://www.w3.org/2000/svg" xmlns:xlink="http://www.w3.org/1999/xlink"><g><path d="M57.264,40.626c0-6.208-5.053-11.259-11.262-11.259c-6.209,0-11.262,5.051-11.262,11.259   c0,6.21,5.053,11.263,11.262,11.263C52.211,51.889,57.264,46.836,57.264,40.626z M38.14,40.626c0-4.333,3.527-7.859,7.862-7.859   s7.861,3.525,7.861,7.859c0,4.335-3.526,7.862-7.861,7.862S38.14,44.961,38.14,40.626z" fill="#010101"/><path d="M46,76.234l1.225-1.271c0.857-0.892,21.017-21.952,21.017-33.845c0-12.264-9.978-22.242-22.241-22.242   c-12.262,0-22.238,9.978-22.238,22.242c0,11.893,20.156,32.953,21.014,33.844L46,76.234z M46,22.278   c10.389,0,18.841,8.452,18.841,18.841c0,8.156-12.622,23.473-18.841,30.188c-6.218-6.713-18.838-22.025-18.838-30.188   C27.162,30.73,35.613,22.278,46,22.278z" fill="#010101"/></g></svg>